<?xml version="1.0" encoding="utf-8"?>
<!-- Generator: Adobe Illustrator 22.1.0, SVG Export Plug-In . SVG Version: 6.00 Build 0)  -->
<svg version="1.1" id="Capa_1" xmlns="http://www.w3.org/2000/svg" xmlns:xlink="http://www.w3.org/1999/xlink" x="0px" y="0px"
	 viewBox="0 0 512 512" style="enable-background:new 0 0 512 512;" xml:space="preserve">
<style type="text/css">
	.st0{fill:#FFFFFF;}
</style>
<g>
	<path class="st0" d="M89.9,0c-6.7,0-12.2,5.4-12.2,12.2v487.6c0,6.7,5.5,12.2,12.2,12.2c6.7,0,12.2-5.4,12.2-12.2V12.2
		C102.1,5.4,96.7,0,89.9,0z"/>
	<path class="st0" d="M237.5,0c-6.7,0-12.2,5.4-12.2,12.2v487.6c0,6.7,5.5,12.2,12.2,12.2s12.2-5.4,12.2-12.2V12.2
		C249.7,5.4,244.2,0,237.5,0z"/>
	<path class="st0" d="M310.6,0.4c-6.4,1.6-10.3,8.3-8.7,15.1l120.6,487c1.7,6.7,8.2,10.9,14.7,9.3c6.4-1.6,10.3-8.3,8.7-15.1
		L325.3,9.7C323.6,2.9,317.1-1.2,310.6,0.4z"/>
</g>
</svg>
